<svg width="206" height="27" viewBox="0 0 206 27" fill="none" xmlns="http://www.w3.org/2000/svg">
<path d="M2.768 3.104V13.004H15.8V15.308H2.768V26H0.104V0.799998H17.384V3.104H2.768ZM38.7764 7.064V26H36.3284V22.544C35.6564 23.696 34.7324 24.596 33.5564 25.244C32.3804 25.868 31.0364 26.18 29.5244 26.18C27.0524 26.18 25.0964 25.496 23.6564 24.128C22.2404 22.736 21.5324 20.708 21.5324 18.044V7.064H24.0884V17.792C24.0884 19.784 24.5804 21.296 25.5644 22.328C26.5484 23.36 27.9524 23.876 29.7764 23.876C31.7684 23.876 33.3404 23.276 34.4924 22.076C35.6444 20.852 36.2204 19.16 36.2204 17V7.064H38.7764ZM55.9071 24.848C55.4271 25.28 54.8271 25.616 54.1071 25.856C53.4111 26.072 52.6791 26.18 51.9111 26.18C50.1351 26.18 48.7671 25.7 47.8071 24.74C46.8471 23.78 46.3671 22.424 46.3671 20.672V9.224H42.9831V7.064H46.3671V2.924H48.9231V7.064H54.6831V9.224H48.9231V20.528C48.9231 21.656 49.1991 22.52 49.7511 23.12C50.3271 23.696 51.1431 23.984 52.1991 23.984C52.7271 23.984 53.2311 23.9 53.7111 23.732C54.2151 23.564 54.6471 23.324 55.0071 23.012L55.9071 24.848ZM77.6241 7.064V26H75.1761V22.544C74.5041 23.696 73.5801 24.596 72.4041 25.244C71.2281 25.868 69.8841 26.18 68.3721 26.18C65.9001 26.18 63.9441 25.496 62.5041 24.128C61.0881 22.736 60.3801 20.708 60.3801 18.044V7.064H62.9361V17.792C62.9361 19.784 63.4281 21.296 64.4121 22.328C65.3961 23.36 66.8001 23.876 68.6241 23.876C70.6161 23.876 72.1881 23.276 73.3401 22.076C74.4921 20.852 75.0681 19.16 75.0681 17V7.064H77.6241ZM87.2308 10.772C87.8308 9.5 88.7188 8.54 89.8948 7.892C91.0948 7.244 92.5708 6.92 94.3228 6.92V9.404L93.7108 9.368C91.7188 9.368 90.1588 9.98 89.0308 11.204C87.9028 12.428 87.3388 14.144 87.3388 16.352V26H84.7828V7.064H87.2308V10.772ZM115.263 17.324H99.4229C99.5669 19.292 100.323 20.888 101.691 22.112C103.059 23.312 104.787 23.912 106.875 23.912C108.051 23.912 109.131 23.708 110.115 23.3C111.099 22.868 111.951 22.244 112.671 21.428L114.111 23.084C113.271 24.092 112.215 24.86 110.943 25.388C109.695 25.916 108.315 26.18 106.803 26.18C104.859 26.18 103.131 25.772 101.619 24.956C100.131 24.116 98.9669 22.964 98.1269 21.5C97.2869 20.036 96.8669 18.38 96.8669 16.532C96.8669 14.684 97.2629 13.028 98.0549 11.564C98.8709 10.1 99.9749 8.96 101.367 8.144C102.783 7.328 104.367 6.92 106.119 6.92C107.871 6.92 109.443 7.328 110.835 8.144C112.227 8.96 113.319 10.1 114.111 11.564C114.903 13.004 115.299 14.66 115.299 16.532L115.263 17.324ZM106.119 9.116C104.295 9.116 102.759 9.704 101.511 10.88C100.287 12.032 99.5909 13.544 99.4229 15.416H112.851C112.683 13.544 111.975 12.032 110.727 10.88C109.503 9.704 107.967 9.116 106.119 9.116Z" fill="#6892FF"/>
<path d="M125.578 26.18C124.042 26.18 122.566 25.964 121.15 25.532C119.758 25.076 118.666 24.512 117.874 23.84L119.026 21.824C119.818 22.448 120.814 22.964 122.014 23.372C123.214 23.756 124.462 23.948 125.758 23.948C127.486 23.948 128.758 23.684 129.574 23.156C130.414 22.604 130.834 21.836 130.834 20.852C130.834 20.156 130.606 19.616 130.15 19.232C129.694 18.824 129.118 18.524 128.422 18.332C127.726 18.116 126.802 17.912 125.65 17.72C124.114 17.432 122.878 17.144 121.942 16.856C121.006 16.544 120.202 16.028 119.53 15.308C118.882 14.588 118.558 13.592 118.558 12.32C118.558 10.736 119.218 9.44 120.538 8.432C121.858 7.424 123.694 6.92 126.046 6.92C127.27 6.92 128.494 7.088 129.718 7.424C130.942 7.736 131.95 8.156 132.742 8.684L131.626 10.736C130.066 9.656 128.206 9.116 126.046 9.116C124.414 9.116 123.178 9.404 122.338 9.98C121.522 10.556 121.114 11.312 121.114 12.248C121.114 12.968 121.342 13.544 121.798 13.976C122.278 14.408 122.866 14.732 123.562 14.948C124.258 15.14 125.218 15.344 126.441 15.56C127.954 15.848 129.166 16.136 130.078 16.424C130.99 16.712 131.77 17.204 132.418 17.9C133.066 18.596 133.39 19.556 133.39 20.78C133.39 22.436 132.694 23.756 131.302 24.74C129.934 25.7 128.026 26.18 125.578 26.18ZM148.087 24.848C147.607 25.28 147.007 25.616 146.287 25.856C145.591 26.072 144.859 26.18 144.091 26.18C142.315 26.18 140.947 25.7 139.987 24.74C139.027 23.78 138.547 22.424 138.547 20.672V9.224H135.163V7.064H138.547V2.924H141.103V7.064H146.863V9.224H141.103V20.528C141.103 21.656 141.379 22.52 141.931 23.12C142.507 23.696 143.323 23.984 144.379 23.984C144.907 23.984 145.411 23.9 145.891 23.732C146.395 23.564 146.827 23.324 147.187 23.012L148.087 24.848ZM159.812 26.18C157.988 26.18 156.344 25.772 154.88 24.956C153.416 24.116 152.264 22.964 151.424 21.5C150.584 20.036 150.164 18.38 150.164 16.532C150.164 14.684 150.584 13.028 151.424 11.564C152.264 10.1 153.416 8.96 154.88 8.144C156.344 7.328 157.988 6.92 159.812 6.92C161.636 6.92 163.28 7.328 164.744 8.144C166.208 8.96 167.348 10.1 168.164 11.564C169.004 13.028 169.424 14.684 169.424 16.532C169.424 18.38 169.004 20.036 168.164 21.5C167.348 22.964 166.208 24.116 164.744 24.956C163.28 25.772 161.636 26.18 159.812 26.18ZM159.812 23.912C161.156 23.912 162.356 23.612 163.412 23.012C164.492 22.388 165.332 21.512 165.932 20.384C166.532 19.256 166.832 17.972 166.832 16.532C166.832 15.092 166.532 13.808 165.932 12.68C165.332 11.552 164.492 10.688 163.412 10.088C162.356 9.464 161.156 9.152 159.812 9.152C158.468 9.152 157.256 9.464 156.176 10.088C155.12 10.688 154.28 11.552 153.656 12.68C153.056 13.808 152.756 15.092 152.756 16.532C152.756 17.972 153.056 19.256 153.656 20.384C154.28 21.512 155.12 22.388 156.176 23.012C157.256 23.612 158.468 23.912 159.812 23.912ZM177.09 10.772C177.69 9.5 178.578 8.54 179.754 7.892C180.954 7.244 182.43 6.92 184.182 6.92V9.404L183.57 9.368C181.578 9.368 180.018 9.98 178.89 11.204C177.762 12.428 177.198 14.144 177.198 16.352V26H174.642V7.064H177.09V10.772ZM205.122 17.324H189.282C189.426 19.292 190.182 20.888 191.55 22.112C192.918 23.312 194.646 23.912 196.734 23.912C197.91 23.912 198.99 23.708 199.974 23.3C200.958 22.868 201.81 22.244 202.53 21.428L203.97 23.084C203.13 24.092 202.074 24.86 200.802 25.388C199.554 25.916 198.174 26.18 196.662 26.18C194.718 26.18 192.99 25.772 191.478 24.956C189.99 24.116 188.826 22.964 187.986 21.5C187.146 20.036 186.726 18.38 186.726 16.532C186.726 14.684 187.122 13.028 187.914 11.564C188.73 10.1 189.834 8.96 191.226 8.144C192.642 7.328 194.226 6.92 195.978 6.92C197.73 6.92 199.302 7.328 200.694 8.144C202.086 8.96 203.178 10.1 203.97 11.564C204.762 13.004 205.158 14.66 205.158 16.532L205.122 17.324ZM195.978 9.116C194.154 9.116 192.618 9.704 191.37 10.88C190.146 12.032 189.45 13.544 189.282 15.416H202.71C202.542 13.544 201.834 12.032 200.586 10.88C199.362 9.704 197.826 9.116 195.978 9.116Z" fill="#B943CC"/>
</svg>
